<svg xmlns="http://www.w3.org/2000/svg" width="22.656" height="25" viewBox="0 0 22.656 25">
  <path id="attachments-icon" d="M3.3,1A7.246,7.246,0,0,0,13.552,1c3.211-3.214,6.352-6.357,9.564-9.57a.586.586,0,0,0,0-.828l-.828-.829a.586.586,0,0,0-.829,0c-3.213,3.213-6.353,6.356-9.565,9.571a4.9,4.9,0,0,1-6.941,0,4.9,4.9,0,0,1,0-6.936L15.94-18.583a3.251,3.251,0,0,1,4.592,0,3.246,3.246,0,0,1,0,4.593L11.281-4.738a1.592,1.592,0,0,1-2.249,0,1.589,1.589,0,0,1,0-2.249l7.835-7.836a.586.586,0,0,0,0-.829l-.828-.829a.586.586,0,0,0-.829,0L7.375-8.644a3.932,3.932,0,0,0,0,5.564,3.938,3.938,0,0,0,5.563,0l9.251-9.252a5.589,5.589,0,0,0,0-7.907,5.6,5.6,0,0,0-7.906,0L3.3-9.252A7.245,7.245,0,0,0,3.3,1Z" transform="translate(-1.172 21.875)" fill="#38b449"/>
</svg>
