<svg xmlns="http://www.w3.org/2000/svg" width="22" height="22" viewBox="0 0 22 22">
  <g id="edit" transform="translate(-1283 -208)">
    <rect id="Rectangle_79" data-name="Rectangle 79" width="22" height="22" rx="2" transform="translate(1283 208)" fill="#0e234e"/>
    <path id="Path_538" data-name="Path 538" d="M11.67-7.17a1.123,1.123,0,0,0,0-1.591L10.261-10.17a1.127,1.127,0,0,0-1.591,0l-1.08,1.08a.281.281,0,0,0,0,.4l2.6,2.6a.281.281,0,0,0,.4,0ZM6.661-8.161.506-2.006.009.841a.563.563,0,0,0,.652.652l2.848-.5L9.663-5.161a.281.281,0,0,0,0-.4l-2.6-2.6A.284.284,0,0,0,6.661-8.161ZM2.909-2.534a.327.327,0,0,1,0-.464L6.518-6.607a.327.327,0,0,1,.464,0,.327.327,0,0,1,0,.464L3.373-2.534A.327.327,0,0,1,2.909-2.534ZM2.062-.562H3.187V.288L1.676.553.947-.176l.265-1.512h.851Z" transform="translate(1287.576 223)" fill="#fff"/>
  </g>
</svg>
