<svg xmlns="http://www.w3.org/2000/svg" xmlns:xlink="http://www.w3.org/1999/xlink" width="154.62" height="73.679" viewBox="0 0 154.62 73.679">
  <defs>
    <linearGradient id="linear-gradient" x1="0.5" x2="0.5" y2="1" gradientUnits="objectBoundingBox">
      <stop offset="0" stop-color="#3ab54a"/>
      <stop offset="1" stop-color="#019444"/>
    </linearGradient>
  </defs>
  <g id="Group_23" data-name="Group 23" transform="translate(-246.067 -461.869)">
    <path id="Path_540" data-name="Path 540" d="M-73.954-5.976h6.2a8.413,8.413,0,0,0,3.965-.885,6.339,6.339,0,0,0,2.613-2.506,7.526,7.526,0,0,0,.927-3.8V-13.2a7.555,7.555,0,0,0-.927-3.816,6.432,6.432,0,0,0-2.613-2.521,8.3,8.3,0,0,0-3.965-.9h-6.2v3.993h4.942a3.766,3.766,0,0,1,2.584.821A3.064,3.064,0,0,1-65.5-13.2v.028a3.091,3.091,0,0,1-.927,2.421,3.724,3.724,0,0,1-2.584.835h-4.942ZM-76.56,0h5.2V-20.433h-5.2Zm28.574.552a10.442,10.442,0,0,0,5.331-1.31,8.9,8.9,0,0,0,3.5-3.717,12.387,12.387,0,0,0,1.239-5.735v-.028a12.4,12.4,0,0,0-1.239-5.728,8.846,8.846,0,0,0-3.5-3.717,10.487,10.487,0,0,0-5.331-1.3,10.487,10.487,0,0,0-5.331,1.3,8.891,8.891,0,0,0-3.5,3.717,12.339,12.339,0,0,0-1.246,5.728v.028a12.447,12.447,0,0,0,1.232,5.735,8.843,8.843,0,0,0,3.5,3.717A10.51,10.51,0,0,0-47.986.552Zm0-4.3a4.109,4.109,0,0,1-2.521-.8A5.161,5.161,0,0,1-52.177-6.8a8.944,8.944,0,0,1-.595-3.406v-.028a8.837,8.837,0,0,1,.6-3.413,5.164,5.164,0,0,1,1.678-2.237,4.111,4.111,0,0,1,2.506-.793,4.111,4.111,0,0,1,2.506.793,5.116,5.116,0,0,1,1.671,2.237,8.931,8.931,0,0,1,.595,3.413v.028A8.944,8.944,0,0,1-43.808-6.8a5.161,5.161,0,0,1-1.671,2.251A4.086,4.086,0,0,1-47.986-3.752ZM-34.025,0H-29.1V-11.583h2.577L-30.2-13.438-20.29,0h4.121V-20.433H-21.1V-8.949h-2.577l3.682,1.841-9.884-13.325h-4.149Zm21.89,0h5.2V-20.433h-5.2ZM6.017.552a10.332,10.332,0,0,0,4.637-.991,8.223,8.223,0,0,0,3.2-2.733,8.016,8.016,0,0,0,1.366-4.021l.014-.241H10.223l-.028.17a4.354,4.354,0,0,1-.729,1.841,3.837,3.837,0,0,1-1.43,1.232,4.393,4.393,0,0,1-2,.439,3.923,3.923,0,0,1-2.457-.786A4.993,4.993,0,0,1,1.989-6.776a9.583,9.583,0,0,1-.559-3.448v-.028a9.467,9.467,0,0,1,.559-3.434A4.95,4.95,0,0,1,3.575-15.9a3.925,3.925,0,0,1,2.443-.779,4.267,4.267,0,0,1,2.011.467,4,4,0,0,1,1.458,1.289,4.255,4.255,0,0,1,.708,1.883l.014.127h5.013l-.014-.255A7.8,7.8,0,0,0,13.848-17.2a8.466,8.466,0,0,0-3.236-2.775,10.107,10.107,0,0,0-4.595-1.012,10.216,10.216,0,0,0-5.282,1.3,8.68,8.68,0,0,0-3.406,3.71,12.756,12.756,0,0,0-1.2,5.735v.028a12.8,12.8,0,0,0,1.2,5.742A8.658,8.658,0,0,0,.743-.75,10.225,10.225,0,0,0,6.017.552Zm22.188,0a10.442,10.442,0,0,0,5.331-1.31,8.9,8.9,0,0,0,3.5-3.717,12.387,12.387,0,0,0,1.239-5.735v-.028a12.4,12.4,0,0,0-1.239-5.728,8.846,8.846,0,0,0-3.5-3.717,10.487,10.487,0,0,0-5.331-1.3,10.487,10.487,0,0,0-5.331,1.3,8.891,8.891,0,0,0-3.5,3.717,12.339,12.339,0,0,0-1.246,5.728v.028a12.447,12.447,0,0,0,1.232,5.735,8.843,8.843,0,0,0,3.5,3.717A10.51,10.51,0,0,0,28.205.552Zm0-4.3a4.109,4.109,0,0,1-2.521-.8A5.161,5.161,0,0,1,24.014-6.8a8.944,8.944,0,0,1-.595-3.406v-.028a8.837,8.837,0,0,1,.6-3.413A5.164,5.164,0,0,1,25.7-15.888a4.111,4.111,0,0,1,2.506-.793,4.111,4.111,0,0,1,2.506.793,5.116,5.116,0,0,1,1.671,2.237,8.931,8.931,0,0,1,.595,3.413v.028A8.944,8.944,0,0,1,32.382-6.8a5.161,5.161,0,0,1-1.671,2.251A4.086,4.086,0,0,1,28.205-3.752ZM42.166,0h4.928V-11.583h2.577l-3.682-1.855L55.9,0h4.121V-20.433H55.094V-8.949H52.517L56.2-7.108,46.315-20.433H42.166Zm21.89,0h14V-4.177H69.253V-8.354h8.284v-3.823H69.253v-4.078h8.808v-4.177h-14Z" transform="translate(322.626 534.996)" fill="#009a4e"/>
    <g id="Group_22" data-name="Group 22" transform="translate(299.665 461.869)">
      <path id="Path_29" data-name="Path 29" d="M1767.4,7631.824a23.338,23.338,0,0,1-12.24-5.144c-6.12-5.01-11.461-15.137-5.124-28.217.27-.006,16.7,9.4,18.25,31.073a47.794,47.794,0,0,1-11.669-13.575C1756.5,7615.724,1762.616,7628.883,1767.4,7631.824Z" transform="translate(-1747.184 -7586.866)" fill="url(#linear-gradient)"/>
      <path id="Path_30" data-name="Path 30" d="M1748.072,7631.824a23.338,23.338,0,0,0,12.24-5.144c6.12-5.01,11.461-15.137,5.124-28.217-.27-.006-16.7,9.4-18.25,31.073a47.8,47.8,0,0,0,11.669-13.575C1758.974,7615.724,1752.857,7628.883,1748.072,7631.824Z" transform="translate(-1722.791 -7586.866)" fill="url(#linear-gradient)"/>
      <path id="Path_31" data-name="Path 31" d="M1761.182,7601.484a30.509,30.509,0,0,1,10.05-15.858,33.119,33.119,0,0,1,9.958,15.858s-7.585,8.483-8.23,12.54l-1.727-13.462-1.752,13.462A43.256,43.256,0,0,0,1761.182,7601.484Z" transform="translate(-1748.536 -7585.626)" fill="url(#linear-gradient)"/>
    </g>
  </g>
</svg>
