<svg xmlns="http://www.w3.org/2000/svg" width="29.347" height="20.467" viewBox="0 0 29.347 20.467">
  <g id="myfarm-icon" transform="translate(0.75 7.75)" opacity="0.871">
    <g id="Layer_2" data-name="Layer 2" transform="translate(0 -7)">
      <path id="Path_32" data-name="Path 32" d="M11.03,19.967H6.16v-16L8.515,1,11.03,3.971Z" transform="translate(-2.849 -1)" fill="none" stroke="#38b449" stroke-linecap="round" stroke-linejoin="round" stroke-width="1.5"/>
      <path id="Path_33" data-name="Path 33" d="M23.774,19.967H18.91v-16L21.265,1l2.509,2.971Z" transform="translate(-7.418 -1)" fill="none" stroke="#38b449" stroke-linecap="round" stroke-linejoin="round" stroke-width="1.5"/>
      <path id="Path_34" data-name="Path 34" d="M36.52,19.967H31.65v-16L34,1,36.52,3.971Z" transform="translate(-11.984 -1)" fill="none" stroke="#38b449" stroke-linecap="round" stroke-linejoin="round" stroke-width="1.5"/>
      <rect id="Rectangle_14" data-name="Rectangle 14" width="3.311" height="2.701" transform="translate(8.181 12.922)" fill="none" stroke="#38b449" stroke-linecap="round" stroke-linejoin="round" stroke-width="1.5"/>
      <rect id="Rectangle_15" data-name="Rectangle 15" width="3.311" height="2.701" transform="translate(16.355 12.922)" fill="none" stroke="#38b449" stroke-linecap="round" stroke-linejoin="round" stroke-width="1.5"/>
      <rect id="Rectangle_16" data-name="Rectangle 16" width="3.311" height="2.701" transform="translate(8.181 5.916)" fill="none" stroke="#38b449" stroke-linecap="round" stroke-linejoin="round" stroke-width="1.5"/>
      <rect id="Rectangle_17" data-name="Rectangle 17" width="3.311" height="2.701" transform="translate(0 12.922)" fill="none" stroke="#38b449" stroke-linecap="round" stroke-linejoin="round" stroke-width="1.5"/>
      <rect id="Rectangle_18" data-name="Rectangle 18" width="3.311" height="2.701" transform="translate(0 5.916)" fill="none" stroke="#38b449" stroke-linecap="round" stroke-linejoin="round" stroke-width="1.5"/>
      <rect id="Rectangle_19" data-name="Rectangle 19" width="3.311" height="2.701" transform="translate(16.355 5.916)" fill="none" stroke="#38b449" stroke-linecap="round" stroke-linejoin="round" stroke-width="1.5"/>
      <rect id="Rectangle_20" data-name="Rectangle 20" width="3.311" height="2.701" transform="translate(24.536 12.922)" fill="none" stroke="#38b449" stroke-linecap="round" stroke-linejoin="round" stroke-width="1.5"/>
      <rect id="Rectangle_21" data-name="Rectangle 21" width="3.311" height="2.701" transform="translate(24.536 5.916)" fill="none" stroke="#38b449" stroke-linecap="round" stroke-linejoin="round" stroke-width="1.5"/>
    </g>
  </g>
</svg>
